<svg id="Layer_1" data-name="Layer 1" xmlns="http://www.w3.org/2000/svg" viewBox="0 0 733.56581 733.53699">
  <defs>
    <style>
      .cls-1 {
        fill: #fccc0f;
      }

      .cls-10, .cls-13, .cls-15, .cls-2, .cls-5, .cls-7, .cls-8 {
        fill: none;
        stroke-width: 1.56px;
      }

      .cls-2 {
        stroke: #000;
      }

      .cls-3 {
        fill: #162c77;
      }

      .cls-4 {
        fill: #fff;
      }

      .cls-5 {
        stroke: #4c4c4c;
      }

      .cls-6 {
        fill: #e50f07;
      }

      .cls-7 {
        stroke: #7f7f7f;
      }

      .cls-8 {
        stroke: #8c8c8c;
      }

      .cls-13, .cls-15, .cls-8 {
        stroke-linecap: round;
      }

      .cls-9 {
        fill: #727272;
      }

      .cls-10 {
        stroke: #595959;
      }

      .cls-11 {
        fill: #4c4c4c;
      }

      .cls-12 {
        fill: #f9db11;
      }

      .cls-13 {
        stroke: #3f3f3f;
      }

      .cls-14 {
        fill: #e00c05;
      }

      .cls-15 {
        stroke: #727272;
      }

      .cls-16 {
        fill: #6b0000;
      }
    </style>
  </defs>
  <title>crown</title>
  <path class="cls-1" d="M380.194,742.98189c202.1162-1.76227,364.55226-167.03258,362.79-369.14877C741.22172,171.70224,575.93667,9.26621,373.80582,11.02846,171.67493,12.80541,9.25358,178.07574,11.04521,380.22131,12.79278,582.3081,178.0778,744.75887,380.194,742.96724Z" transform="translate(-10.22 -10.24301)"/>
  <path class="cls-2" d="M380.18947,742.98546c202.11392-1.75408,364.55627-167.03228,362.80227-369.14616C741.23764,171.69619,575.93021,9.283,373.80171,11.03708,171.6732,12.80577,9.26,178.084,11.01408,380.21245S178.09021,744.76877,380.18947,742.98546Z" transform="translate(-10.22 -10.24301)"/>
  <path class="cls-3" d="M380.0912,730.23491c195.08185-1.71822,351.864-161.23184,350.14577-356.31369C728.54815,178.8247,569.01983,22.05725,373.92328,23.77546c-195.06715,1.68882-351.864,161.23183-350.14576,356.299C25.481,575.15629,185.024,731.93843,380.0765,730.23491Z" transform="translate(-10.22 -10.24301)"/>
  <path class="cls-4" d="M282.46215,253.60314c9.88332,12.92322-17.22606-18.6946-18.254.749-.9986,19.44358,6.59379,10.54416,3.68605,15.28758-2.90772,4.714,24.77439,6.256,14.64142-8.37071-10.133-14.64142,1.2189,6.4616,10.07424,8.73785s13.55468,2.24688,11.14627-5.40424c-2.40842-7.63644-2.52591-19.38482-8.38542-16.99109-5.87419,2.40842-20.031-3.363-12.90852,5.99168Z" transform="translate(-10.22 -10.24301)"/>
  <path class="cls-5" d="M282.4726,253.60687c9.86671,12.93635-17.24845-18.69556-18.27166.74548-.97936,19.44106,6.607,10.5391,3.69818,15.28974-2.90886,4.72139,24.77638,6.25621,14.63194-8.37573s1.22785,6.47547,10.086,8.74116c8.84349,2.2803,13.55027,2.25106,11.1384-5.40841-2.41185-7.61564-2.5288-19.38258-8.37573-16.98533-5.87617,2.39724-20.04037-3.362-12.90711,5.99311Z" transform="translate(-10.22 -10.24301)"/>
  <path class="cls-4" d="M354.86154,251.79683c9.88332,12.92322-17.24075-18.6946-18.23935.73428-1.028,19.45825,6.56441,10.55886,3.65669,15.30226-2.90772,4.72872,24.77439,6.256,14.64142-8.37072-10.133-14.64142,1.24827,6.4616,10.08891,8.73785,8.85534,2.27626,13.56939,2.2322,11.161-5.40424-2.43779-7.62176-2.54058-19.38482-8.41477-16.9911-5.87419,2.40841-20.04566-3.363-12.89384,5.99167Z" transform="translate(-10.22 -10.24301)"/>
  <path class="cls-5" d="M354.85765,251.80894c9.88133,12.92172-17.24846-18.71019-18.24243.73087-1.0232,19.45567,6.5778,10.55372,3.65434,15.28974-2.89423,4.72139,24.791,6.25622,14.6612-8.37572-10.1298-14.61734,1.22786,6.46085,10.086,8.75579,8.8581,2.26569,13.56488,2.22184,11.1384-5.40841-2.41185-7.63025-2.52882-19.39721-8.405-17-5.84693,2.41185-20.04037-3.362-12.8925,5.99312Z" transform="translate(-10.22 -10.24301)"/>
  <path class="cls-4" d="M429.61063,250.56323c9.88334,12.92323-17.24074-18.6946-18.23938.73428-.99861,19.44358,6.56441,10.54416,3.67136,15.28758-2.90774,4.72873,24.77439,6.256,14.62673-8.37071-10.133-14.64142,1.24827,6.4616,10.10361,8.75255,8.84064,2.26155,13.55471,2.2175,11.13157-5.40424-2.4231-7.63645-2.5112-19.39953-8.40009-17.00579-5.85949,2.40842-20.04567-3.34828-12.89385,6.00636Z" transform="translate(-10.22 -10.24301)"/>
  <path class="cls-5" d="M429.61068,250.56648c9.89592,12.93635-17.24844-18.69556-18.22782.73087-1.0086,19.44106,6.56317,10.55372,3.65433,15.28974-2.89425,4.736,24.791,6.25622,14.632-8.37572-10.11522-14.63195,1.24248,6.46085,10.10058,8.75579,8.84347,2.26569,13.56489,2.22184,11.1384-5.40841s-2.51418-19.39721-8.39033-17c-5.86157,2.41185-20.055-3.362-12.90709,5.99312Z" transform="translate(-10.22 -10.24301)"/>
  <path class="cls-6" d="M318.95556,252.70732c4.49375,5.87419,1.777,1.38044-3.084-2.17344-5.87419-4.25878-14.612-7.6805-15.17009,2.90772-.99861,19.45825,6.57908,10.54416,3.67136,15.28758-2.893,4.72873,24.78909,6.256,14.6561-8.37071-10.14767-14.64142,1.24828,6.4616,10.07424,8.75255,8.85534,2.26155,13.55469,2.2175,11.161-5.40424-2.4378-7.63645-2.55528-19.39953-8.40009-17.00579-5.87419,2.40842-20.04567-3.34828-12.90853,6.00636Z" transform="translate(-10.22 -10.24301)"/>
  <path class="cls-2" d="M318.95746,252.71523c4.50214,5.87618,1.78332,1.374-3.08426-2.1926-5.86154-4.239-14.61733-7.65949-15.15817,2.92347-1.0086,19.44106,6.5778,10.53911,3.65434,15.28974-2.89423,4.72139,24.791,6.25622,14.66118-8.39036-10.14443-14.61733,1.24248,6.47547,10.08595,8.7704,8.84349,2.2657,13.55028,2.22185,11.1384-5.4084-2.42648-7.63026-2.54342-19.39721-8.39035-17-5.86155,2.41185-20.04038-3.362-12.90711,5.99311Z" transform="translate(-10.22 -10.24301)"/>
  <path class="cls-6" d="M394.30673,251.45905c9.88334,12.9379-17.25543-18.6946-18.254.73427-1.0133,19.44358,6.57911,10.55886,3.67137,15.28759-2.90772,4.7434,24.78908,6.24133,14.64142-8.37072-10.133-14.62674,1.23357,6.4616,10.08891,8.73786,8.85534,2.29093,13.56936,2.24687,11.14627-5.38957s-2.5259-19.4142-8.40009-16.99111C401.34109,247.87579,387.15491,242.08971,394.30673,251.45905Z" transform="translate(-10.22 -10.24301)"/>
  <path class="cls-2" d="M394.29519,251.47275c9.89592,12.92172-17.24844-18.71019-18.22782.73087-1.02323,19.44106,6.56317,10.55372,3.65434,15.27511-2.89425,4.736,24.791,6.25622,14.64655-8.37573-10.1298-14.61733,1.22785,6.47547,10.08595,8.75579,8.84347,2.2803,13.56489,2.23645,11.1384-5.40841-2.41185-7.63025-2.51418-19.41181-8.39033-16.98533-5.84694,2.41185-20.04036-3.362-12.90709,5.99311Z" transform="translate(-10.22 -10.24301)"/>
  <path class="cls-6" d="M464.92917,250.82759c9.898,12.95257-17.22607-18.67993-18.21.76365-1.028,19.42887,6.54971,10.52948,3.642,15.27288-2.893,4.7434,24.78909,6.256,14.64142-8.37072-10.133-14.62674,1.24827,6.4616,10.10361,8.73786,8.84064,2.27625,13.54,2.24687,11.11692-5.40425-2.4231-7.62176-2.49655-19.38482-8.37074-16.9911s-20.06036-3.34829-12.9232,5.99168Z" transform="translate(-10.22 -10.24301)"/>
  <path class="cls-2" d="M464.94079,250.82958c9.89592,12.951-17.24843-18.68095-18.22781.76011-1.02323,19.44106,6.54858,10.53911,3.65433,15.27511-2.90884,4.736,24.791,6.25622,14.64655-8.36111-10.1298-14.632,1.24249,6.44625,10.086,8.72655s13.55025,2.23645,11.1384-5.40841c-2.42649-7.601-2.51419-19.39721-8.39034-16.98534-5.87615,2.39724-20.04035-3.362-12.90709,5.99312Z" transform="translate(-10.22 -10.24301)"/>
  <path class="cls-4" d="M304.1526,244.39534s17.98971,12.08614,28.24016,4.993c2.49653-1.74757-18.26873,13.07007,7.16652,1.65947,18.6065-8.34134,3.7301,23.80516,21.76389-1.072,8.70847-12.0127.26432,7.32806,19.54636,14.24491,0,0-5.698-12.30643.73427-16.4771,10.72038-6.96093,4.72873,16.03653,24.40726-2.57,0,0,4.81683,11.13159,8.88469,6.99028,4.09726-4.156,2.614-5.60987,7.34274-3.89165s4.5525-1.70352,14.34769.9105c5.75673,1.542,3.84759,1.92379,10.95535,5.77138.17622-14.24491-6.19727-16.30089-12.52671-19.86945-6.31473-3.58326-9.95675-34.51086-12.07146-39.50392-3.598-8.50289,1.10141-10.01549-2.92239-30.88355-3.9651-20.85337-29.03317-23.58487-34.92206-25.00936-5.91824-1.42449-5.62452-.558-21.20583-.69022,0,0-46.6117,6.726-10.30921,34.364,14.00993,10.66166,9.1931,23.159,9.1931,23.159.044,6.535-17.91627,17.32887-24.42195,23.83452-7.88609,7.8861-12.30644,22.10165-33.82065,23.45271l-.38181.58741Z" transform="translate(-10.22 -10.24301)"/>
  <path class="cls-7" d="M304.15011,244.38334s17.97933,12.10315,28.24071,4.99912c2.49957-1.73947-18.27167,13.0679,7.16248,1.66638,18.60788-8.33188,3.742,23.81165,21.77982-1.06706,8.69733-12.01545.2631,7.30866,19.54337,14.2519,0,0-5.70075-12.3078.73087-16.48835,10.71448-6.95785,4.736,16.03521,24.411-2.57265,0,0,4.80912,11.13841,8.88732,6.98709,4.09284-4.15132,2.60189-5.61305,7.33789-3.88822,4.72141,1.72484,4.53138-1.69561,14.325.9209,5.77386,1.53483,3.859,1.91487,10.963,5.75923.19-14.23729-6.18315-16.28371-12.51244-19.865-6.3147-3.58124-9.93977-34.49692-12.07393-39.51065-3.59585-8.49267,1.0963-10.01288-2.92347-30.88644-3.97591-20.85894-29.03005-23.57776-34.93542-24.99565s-5.613-.55546-21.19513-.70162c0,0-46.61468,6.724-10.3052,34.38,14.00338,10.656,9.19431,23.15386,9.19431,23.15386.02922,6.51934-17.93547,17.33616-24.42555,23.82626-7.87874,7.89335-12.30779,22.116-33.82451,23.46082l-.38005.58469Z" transform="translate(-10.22 -10.24301)"/>
  <path class="cls-8" d="M361.81547,163.44716a16.8311,16.8311,0,0,0,5.86157,5.233m-9.89592-12.71708c2.675,3.65434,5.71538,6.5778,8.08338,7.45485m-8.66807-6.88477c3.65434,5.58383,6.914,8.91658,11.34307,10.08595m21.94059,51.01451c.36543,7.65949.33621,5.59844,2.70421,7.63025,2.368,2.04642,8.478-8.30263,8.43419-11.84m-10.48065-54.61036c2.982.994,4.75064,3.50815,4.15132,5.26225m-.62854-7.65949c3.28891.70162,4.13669,1.16939,4.736,4.09285m0-5.59844c3.50815-.02924,4.10746.8332,4.41442,2.30954M380.42336,177.9914c.54083-4.99912-2.04642,3.552,2.10489,5.27686M354.5068,172.29065c5.61306,3.50815,12.05931,11.79618,12.10316,17.687m-6.914-16.5176c2.68959,2.48495,7.26482,6.87015,7.86413,9.20893" transform="translate(-10.22 -10.24301)"/>
  <path class="cls-8" d="M397.80339,180.53483c.90626,6.19776.33621,5.58383,4.18053,7.92259,3.859,2.30954,5.24762-7.39637,3.72741-12.68786m2.6311-.62853c4.79448,7.601,8.93117,9.93979,5.78845-11.81081m-2.13412,24.73253c1.82717,6.46086,7.718,7.00169,4.06362-7.104m-16.94149,15.46514c2.41186,8.21494,7.06016-1.24248,6.43162-7.11863m-2.26567,11.7962c-2.42648-8.22957,4.239,13.49179,6.43162-4.19517M386.548,212.07906c-.05848-7.08941,3.1135,10.773,5.77386,6.89939.687-.93551,1.31555-3.23045,1.85639-7.57177m-37.90274.70162c-.67238-10.59757,2.52881,19.39721,9.39894-3.62509m-23.40235,16.09368c1.11091-6.47547-2.82113,14.17881,7.03094-1.22785m20.63969,2.77728c-1.85639-10.01288-1.54944,24.13321,10.59756-.10233m-25.2149,11.98621c-.62853-5.3061,3.62512,9.38432,9.39894-2.42648m40.50462-14.5004c4.19517,9.98364,8.31727,10.52448,10.59757,1.0963m-3.04039-12.337c-1.871-11.16764,4.89682,21.13667,8.21494-1.84178m-32.14351,27.94834c-1.25707-11.16764,3.80052,29.39546,10.0421,2.865M417.069,229.8245c-3.61048-10.583,6.037,18.19858,9.38435-4.79448M406.51526,235.2183c-3.61048-9.98364,6.6655,19.95266,10.02747,2.25106M370.65894,241.416c-2.39726-6.46086,1.301,14.69043,8.25879.497" transform="translate(-10.22 -10.24301)"/>
  <path class="cls-9" d="M357.00563,153.63911c-.19091,1.1161-.58741,2.51122-.58741,2.51122s5.38957-.04406,12.89385,3.8476c4.80216,2.49652,7.46022-3.642,7.40147-2.57.22027-3.7448-.14687-6.63783.85176-8.78192,0,0-3.4364.07343-4.22943.20559-3.642.58743-2.45247-.01468-4.80215,0,0,0-10.38264-1.73288-11.52811,4.80215Z" transform="translate(-10.22 -10.24301)"/>
  <path class="cls-1" d="M369.22394,156.15033a4.38482,4.38482,0,0,0,3.95039-2.5406c.54336-.9105,1.08674-2.18813.36714-2.64339-.73427-.44056-3.26018.17623-4.34691.17623-1.29233.02937-2.64339-.22028-3.34829.39651-.514.42588-.58741,1.586-.58741,2.15876C365.27354,155.06359,367.05049,156.165,369.22394,156.15033Zm-12.02741,16.52116c2.49653,2.49652,18.35684,2.98115,15.94843.77832-2.4231-2.18813-8.38542-2.37905-9.58962-5.91824,0,0-9.83926-16.96173-21.36737-18.88552-11.5134-1.90912-1.24827-.33777-1.90911-.38183-5.184-.36713-6.35882,0-7.6952.96925-10.177,1.52729-23.64362-.96925-10.79383,26.47791,1.21889,2.55527-1.18952-3.67137,2.335-3.97976,0,0,32.45491.33777,33.0717.93987Z" transform="translate(-10.22 -10.24301)"/>
  <path class="cls-10" d="M357.19643,172.68533c2.485,2.48494,18.374,2.96731,15.93289.7601-2.39726-2.1926-8.37575-2.368-9.57434-5.90539,0,0-9.83748-16.97073-21.35592-18.88559-11.53308-1.91487-1.2571-.33619-1.91487-.38-5.18916-.38-6.35855,0-7.68871.96475-10.18828,1.53483-23.65084-.96475-10.80221,26.472,1.21324,2.558-1.19863-3.65434,2.33878-3.97592,0,0,32.45048.33619,33.06443.95012Z" transform="translate(-10.22 -10.24301)"/>
  <path class="cls-5" d="M369.5042,174.04473c-22.51068-5.2184-33.47368-14.4273-36.90877-24.80562M322.40715,176.135s-.40928-6.02234,2.25106-6.47547c2.63113-.46777,7.35252.07309,29.26391-1.02321" transform="translate(-10.22 -10.24301)"/>
  <path d="M370.04632,154.6524a1.17483,1.17483,0,0,0,1.14547-1.17484,1.1308,1.1308,0,0,0-1.14453-1.11687l-.03032.00077a1.14566,1.14566,0,0,0,.02938,2.29094Z" transform="translate(-10.22 -10.24301)"/>
  <path class="cls-11" d="M343.02506,155.31325c.0881.1028,0,.36714.05873.54337.14686.44057.64616.64617.83708,1.04267a10.07,10.07,0,0,0,1.29233,1.65945,27.90179,27.90179,0,0,0,3.128,3.52452c.235-1.072-2.0119-3.81822-2.90772-4.46439a19.31537,19.31537,0,0,1-1.71819-2.71681c-.39652.05875-1.08674-.71958-1.40982-.93987-.13216.61679.33776.93987.7196,1.35106Z" transform="translate(-10.22 -10.24301)"/>
  <path class="cls-12" d="M93.372,541.10067s95.015,175.65294,299.55431,160.85c197.62245-14.25958,265.54277-158.86746,272.07778-179.06,2.08536-6.44695,4.2-11.44-.41119-15.61067-9.83929-8.8994-39.41581-12.9232-44.48232-12.36519-10.691,1.18952-9.75117,9.67772-7.049,12.26238,2.86369,2.68742,7.41615.61681,6.54971,2.48185-54.65934,116.867-185.551,144.12323-225.5395,146.34075,0,0-164.2864,23.14432-256.77554-135.78189,0,0,12.89385-21.52891-8.7966-20.95616-8.23855.20562-15.39038,19.67853-29.95837,25.494,0,0-11.30781,7.09307-5.16928,16.345Z" transform="translate(-10.22 -10.24301)"/>
  <path class="cls-13" d="M95.75076,527.33109s15.97675,0,9.61821,17.10228c-2.23645,6.08081,14.99739-19.20718,31.90965-23.62161m529.396-10.39293a7.51163,7.51163,0,0,0-4.049-2.29492c-3.25968-.58469-8.44882,2.29492-7.48407,8.84348a4.44845,4.44845,0,0,0,1.5348,2.60189c6.06619,4.736-14.76352-8.18571-37.05495-9.91055" transform="translate(-10.22 -10.24301)"/>
  <path class="cls-4" d="M69.61088,435.51211c-8.591,4.08256-8.44414,12.01271-7.284,16.96171,2.20282,9.33994,10.89662,15.25823,24.466,12.0421,12.14489-2.87834,20.45686-9.39869,17.43166-22.17507-1.072-4.52311-5.08118-11.85119-17.62257-11.38125l-1.6154-6.75532c20.14847-1.73288,24.75971,13.86309,25.67021,17.75473,2.77556,11.70433-2.11471,24.99466-21.9401,29.67933-15.875,3.75948-29.00381-2.68742-32.5577-17.696-3.14269-13.29033,3.48046-22.14567,11.86587-25.18558Zm31.58846-56.31881,2.95179,38.98992-52.83834,4.00915-2.92241-38.476,6.32944-.4846,2.379,31.3535,16.19808-1.23358-2.20282-28.9304,6.32944-.47,2.20282,28.93041,17.65194-1.35109-2.40841-31.86749,6.31476-.46995ZM51.18061,337.8537l.55805-6.90217,52.82366,4.22943-.64617,8.03295L59.0814,366.62256v.14687l42.6613,3.43639-.558,6.91687L48.361,372.86391l.69022-8.44414L93.84192,341.437l.01468-.14687-42.676-3.43639Zm1.55666-13.48125,9.79521-41.89766,6.18259,1.45387-4.08256,17.461,45.42217,10.61759-1.63009,6.9756L63.00242,308.35059l-4.09725,17.4757-6.1679-1.45387Z" transform="translate(-10.22 -10.24301)"/>
  <path class="cls-4" d="M116.76594,288.27555l-2.65806,6.65251-49.2404-19.67852,9.105-22.76249c3.2308-8.077,9.28122-15.05261,19.70791-10.88194,7.25463,2.893,8.45883,7.66582,9.04625,11.57216,2.29094-2.34968,4.6553-4.67,11.60153-2.20282l9.09031,3.14269c2.77556,1.028,3.93571,1.10141,5.91825-.48462l1.10141.44056-3.26018,8.15045c-3.407-.24965-10.95536-3.02521-12.80573-3.75948-4.0532-1.61541-9.105-2.68744-12.29175,5.27208l-6.43224,16.11,21.11772,8.42947ZM89.95026,277.56984l6.1679-15.41974c1.93849-4.87559,2.77556-10.51481-4.49375-13.42253-7.60708-3.0399-10.45606,2.26156-11.76307,5.55111L73.2235,270.87327l16.74144,6.69657Z" transform="translate(-10.22 -10.24301)"/>
  <path class="cls-4" d="M121.97928,238.87361,132.406,251.5178l-3.78886,6.35882L93.28386,213.62927l4.156-6.9756L152.7894,217.286l-4.00914,6.71127-15.93374-3.37767Zm4.09725-19.282-24.04013-5.21334-.08811.11748,15.71346,19.238Z" transform="translate(-10.22 -10.24301)"/>
  <path class="cls-4" d="M152.21668,208.8565l16.74144-21.0296,4.96369,3.96508L152.716,218.40205l-41.4571-33.02763,4.46439-5.58048,36.4934,29.04788Zm41.9564-36.1997-5.28677,4.84621-35.83256-39.034,5.27208-4.84621,35.83255,39.034Zm.38182-67.62661,5.58048-4.11194,31.42691,42.66131-6.4616,4.75809-47.08163-18.47433-.11749.08811,25.39118,34.45213-5.58049,4.11193-31.44158-42.63193,6.82875-5.03712,46.6998,18.75335.13216-.1028-25.40587-34.45212ZM205.848,97.29094,243.8834,77.20121l2.96647,5.62454-15.86032,8.37072,21.77857,41.23681-6.32944,3.34829-21.77856-41.2515-15.86032,8.37072Zm99.46471,14.00994-36.86055,13.09945L250.69746,74.46971l36.37593-12.92322,2.11471,5.96231L259.5675,78.053l5.43362,15.30226,27.34435-9.72178,2.12939,5.977-27.32967,9.72178,5.93292,16.6827,30.10522-10.70571,2.12939,5.99167Zm7.62177-7.7833,26.31637-5.463,1.29233,6.212-33.336,6.91686L296.44273,59.28493l7.01965-1.45386,9.47213,45.67182Zm34.92206-6.15321,26.77161-2.20282.514,6.31476-33.90875,2.79024-4.34691-52.809,7.13714-.58743Zm35.348,5.02243-7.16652-.01469.22027-53.01456,7.15182.02937-.20562,53.01456Zm31.52971-26.21357,23.08557,2.74618-3.33359,28.15206-4.64061-.54336-.88114-7.03435c-4.17067,4.56719-11.161,7.005-18.32749,6.1679-9.0169-1.07205-13.04071-4.90495-15.41975-7.87142-7.16652-8.57632-6.31473-17.62257-5.65391-23.203,1.5273-12.82042,11.0141-26.33106,28.16673-24.28977,9.80988,1.17483,20.08972,8.033,20.22188,20.0163l-6.90219-.82239c-1.17482-9.42808-8.64977-12.24769-14.4358-12.92322-9.45745-1.13078-18.12187,5.49237-19.76664,19.26735-1.26293,10.70571.93989,22.11632,14.9498,23.79047a17.00862,17.00862,0,0,0,11.17563-2.1c5.0518-3.11332,6.78468-7.66582,7.4602-13.31972l-16.43305-1.93849.73427-6.09447Zm61.92862,43.35152L439.14148,108.4519l14.99386-50.82643,37.00742,10.91131-1.79163,6.09447-30.14928-8.8994-4.59656,15.58129,27.829,8.22387-1.80633,6.0651-27.81429-8.1945L447.80591,104.384l30.64857,9.04624ZM533.74533,87.951l6.256,3.01052L517.0039,138.704l-7.23993-3.48047-5.698-50.26838-.14686-.07342L485.342,123.46045l-6.24133-3.01053,22.99746-47.74248,7.63647,3.67137,5.31609,50.09217.11746.05875,18.57712-38.56406Zm38.78435,44.24734c3.75948-8.73785-1.586-14.612-5.742-17.56383-7.82734-5.53642-18.254-4.2441-26.31639,7.13715-7.21057,10.177-9.14907,20.55966,1.57136,28.16674,3.78883,2.68744,11.64557,5.53642,20.75058-3.11333l5.65392,4.00914c-13.9512,14.612-27.71149,5.94762-30.98636,3.642-9.80989-6.96091-14.92045-20.16316-3.14272-36.7871,9.4281-13.305,23.55552-17.15264,36.12628-8.22387,11.161,7.88611,12.02741,18.91489,7.73923,26.72757l-5.65392-3.99445Zm13.49591,63.05943-28.01987-27.30029,36.96336-37.97664L622.62181,156.914l-4.42034,4.55249L595.674,139.54106l-11.32249,11.64558,20.77994,20.22189-4.435,4.5525-20.77994-20.25127L567.55128,168.4127l22.90935,22.29255-4.435,4.5525Z" transform="translate(-10.22 -10.24301)"/>
  <path class="cls-4" d="M616.49795,209.767l-15.93375,3.84758-4.06786-6.16789,55.24675-12.45328,4.4497,6.78469-33.73254,45.14315-4.30284-6.535,10.01551-12.84979Zm15.55191,12.11551,15.19948-19.35544-.08811-.11749L623.0183,208.1369Z" transform="translate(-10.22 -10.24301)"/>
  <path class="cls-4" d="M656.98581,255.21855l9.4281,21.24988-25.9052,11.51341-1.87974-4.25878,5.58046-4.33221c-6.06511-1.27763-11.719-6.02105-14.65612-12.62952-3.68607-8.29728-2.45249-13.70155-1.14546-17.27011,3.73012-10.54416,11.954-14.43582,17.06451-16.71207,11.82179-5.24273,28.26954-3.99445,35.2892,11.79243,4.00915,9.04626,3.34828,21.36737-6.88749,27.6087l-2.80494-6.32944c7.50426-5.84481,6.10917-13.70155,3.74478-19.03238-3.86228-8.70848-13.99525-12.77636-26.68353-7.13714-9.83928,4.37626-18.51836,12.10083-12.80573,24.99468a16.91112,16.91112,0,0,0,7.50425,8.53226c5.25739,2.76087,10.05956,1.90911,15.27289-.39652l-6.72593-15.11134,5.60986-2.49653Zm-5.87419,74.24976-9.79523-37.88853,51.32576-13.261,9.663,37.37453-6.15322,1.586-7.87139-30.443-15.71348,4.06788,7.25463,28.09332-6.13852,1.586-7.26933-28.09332-17.15262,4.435,7.9889,30.94229Zm56.40692,31.3388.66086,6.90216-52.7649,5.09587-.76363-8.01828,40.03262-30.92761v-.14686l-42.63193,4.11193-.67552-6.90216,52.7796-5.09587.80769,8.45883-40.09133,30.487.0147.14686,42.63193-4.11194Zm-60.79786,84.2212,1.61541-6.9756,20.79464,4.83154,35.3626-12.33579-1.87973,8.12106-28.25484,9.061,21.36734,20.55967-1.89443,8.20917-26.33105-26.63943-20.77994-4.83153Z" transform="translate(-10.22 -10.24301)"/>
  <path class="cls-6" d="M162.65805,571.70519l-14.06868,12.18893c-4.4497,3.86228-10.60292,4.33223-15.75752-1.61542-5.05181-5.84483-3.48047-11.60151.57273-15.11136l14.46519-12.54141,2.54059,2.9371-13.65749,11.83648c-4.714,4.08256-3.52452,8.077-1.24827,10.70573,2.335,2.68742,6.18259,4.64061,10.89662.54335l13.73092-11.88054,2.5259,2.93709Zm17.3876,17.21138,2.68744,2.614L162.73147,612.1343l-3.128-3.0399,5.68328-26.801-.05874-.05875-16.154,16.63862-2.70212-2.62871,20.0163-20.589,3.28954,3.20142-5.8595,26.65413.05874.04406,16.154-16.63863ZM170.926,619.1099l-2.93709-2.5406,18.78272-21.73449,2.9371,2.55526Zm20.61842-19.86944,18.43028,14.30363L207.86,616.26092l-7.68049-5.9623-15.49318,19.97225-3.084-2.379,15.50787-19.97225-7.66582-5.9623Zm21.852,50.91456L195.68568,638.5241l15.75751-23.98136,17.47571,11.46935-1.87974,2.87834-14.24491-9.35464-4.81683,7.34274,13.12882,8.63507-1.89442,2.87834L206.083,629.75687l-5.27208,8.01826,14.47988,9.5015-1.89442,2.87834Z" transform="translate(-10.22 -10.24301)"/>
  <path class="cls-6" d="M232.83994,628.33242l10.27983,5.43365c6.62314,3.49515,8.04764,10.66166,4.17067,17.9897-2.99583,5.68327-9.36934,11.73368-17.71068,7.328l-10.14767-5.36019Zm-8.42947,24.27509,6.65252,3.50985c4.44969,2.34969,9.2078.38184,12.58546-6.021s2.14409-11.161-2.5259-13.62812l-6.40287-3.37764-10.30921,19.517Z" transform="translate(-10.22 -10.24301)"/>
  <path class="cls-6" d="M277.939,658.02641c1.35106-4.24412-1.61541-6.82874-4.64062-7.95955-2.29093-.83708-6.38819-1.64476-7.90079,2.4525-.85176,2.27623.48463,3.62731,1.90912,4.59656l7.03433,4.61126c3.18675,2.11471,5.02243,5.184,3.4364,9.45745-2.36437,6.37349-8.95815,5.93294-13.55469,4.21472-4.99305-1.85038-6.37349-4.08256-7.16652-5.60986-1.52728-2.90774-1.13079-5.31614-.2056-7.82734l3.40705,1.26293c-1.80631,4.87559,1.63008,7.76863,5.08118,9.04626,2.62869.98394,7.29868,1.95315,8.72318-1.9091,1.05735-2.80493.07343-4.2-3.96508-6.90219l-5.02243-3.30423c-1.61541-1.072-5.12524-3.78883-3.37766-8.4735,1.55666-4.2,5.83013-7.29868,12.33579-4.87559,9.41339,3.49515,8.26793,9.47215,7.31336,12.48265l-3.407-1.26293Zm8.42947-5.88885,22.51284,6.02106-.88114,3.33358-9.3987-2.5259-6.52035,24.42195-3.7448-1.0133,6.52035-24.40725-9.36934-2.49655Z" transform="translate(-10.22 -10.24301)"/>
  <path class="cls-6" d="M312.494,679.46721l-4.34691,7.73923-3.95039-.66086,15.43442-26.50727,4.34691.73428,5.44832,30.04647-4.17067-.70492-1.40981-8.72318L312.494,679.48187Zm10.54416-1.70352-2.05595-13.15817-.08811-.0147-6.65252,11.68962,8.81128,1.48325Z" transform="translate(-10.22 -10.24301)"/>
  <path class="cls-6" d="M334.33126,662.47615l23.24711,1.76228-.26433,3.43639-9.69242-.73427-1.90912,25.18558-3.877-.29373,1.90911-25.18558-9.67772-.749Zm47.8159,30.26674-21.19113.22028-.32308-28.69543,20.9121-.235.044,3.4364-17.03516.19092.08811,8.81128,15.71348-.19092.04405,3.4364-15.71345.17622.10281,9.58961,17.31417-.19092.02935,3.4364ZM403.632,670.55316c-.58741-4.40564-4.391-5.4777-7.62177-5.184-2.42309.22027-6.4616,1.27763-6.06511,5.60986.22028,2.4231,2.01191,3.084,3.71543,3.31894l8.32668,1.13076c3.78883.54336,6.77,2.5259,7.19587,7.06371.58741,6.77-5.52175,9.20778-10.42669,9.663-5.28678.47-7.50426-.93989-8.8847-1.98254-2.64336-1.95315-3.31893-4.31754-3.56856-6.97561l3.62732-.33778c.46994,5.184,4.81683,6.31474,8.4882,5.99166,2.79023-.26433,7.43085-1.39514,7.049-5.50706-.26433-2.98115-1.76227-3.81823-6.535-4.50845l-5.99166-.82238c-1.90909-.26433-6.24132-1.20422-6.69657-6.16792-.39649-4.47905,2.11471-9.105,9.03156-9.73648,10.0008-.91049,11.54276,4.9784,11.98335,8.10637l-3.62731.33778Z" transform="translate(-10.22 -10.24301)"/>
  <path class="cls-6" d="M440.00792,686.22254c-10.5148,2.08536-15.4638-6.021-16.68268-12.08616-1.20422-6.07981.26433-15.46381,10.76444-17.54916,10.5001-2.1,15.4638,6.00635,16.68268,12.07146,1.20422,6.07981-.26433,15.4638-10.76444,17.56381ZM434.7652,659.9502c-6.10917,1.23358-8.84064,6.77-7.519,13.40785,1.32168,6.62316,5.9623,10.72038,12.08616,9.4868,6.10917-1.21887,8.84064-6.77,7.519-13.39314C445.52967,662.81389,440.88906,658.73133,434.7652,659.9502Z" transform="translate(-10.22 -10.24301)"/>
  <path class="cls-6" d="M463.46063,679.96651l-3.73013,1.07206-7.93014-27.594,19.09111-5.4777.95455,3.30423-15.361,4.40564,2.42309,8.45885,13.52531-3.89164.95455,3.30423-13.54,3.89164,3.61261,12.52671Z" transform="translate(-10.22 -10.24301)"/>
  <path class="cls-6" d="M496.0477,660.31738l.4846,8.87-3.67137,1.542-1.20422-30.63388,4.05321-1.71822L516.4311,660.802l-3.90634,1.64476-5.87419-6.60846-10.60292,4.479Zm8.0036-7.10776-8.826-9.9861-.07341.02935.67552,13.42255,8.22387-3.46575Z" transform="translate(-10.22 -10.24301)"/>
  <path class="cls-6" d="M541.92511,647.17387,533.76,632.31217c-.41119-.73427-2.08536-3.96509-3.37764-6.31473l-.07341.044,4.5231,25.02406-3.34828,1.85039-18.67993-17.21138-.07341.02935c1.27763,2.32029,3.11332,5.4777,3.49515,6.212l8.17982,14.86169-3.28953,1.80633L507.28212,633.443l4.87559-2.65807,18.87085,17.31419.07341-.04406-4.55251-25.20028,4.84619-2.64336L545.2,645.36767l-3.28954,1.80633Zm27.38845-18.4009-17.35825,12.14487-16.44775-23.51146L552.63083,605.423l1.96785,2.80493-13.9512,9.76583,5.03711,7.21057,12.87914-9.0022,1.96785,2.80493-12.86449,9.0169,5.49235,7.85674,14.18618-9.92739,1.96785,2.81963Z" transform="translate(-10.22 -10.24301)"/>
  <path class="cls-14" d="M577.94858,621.78267l-2.9371,2.5406-18.768-21.71983,10.04486-8.67912c3.56856-3.084,8.22387-4.9343,12.18892-.33778a7.049,7.049,0,0,1,1.46855,7.82734c1.67417-.55806,3.37764-1.08671,6.12386,1.83568l3.598,3.77418c1.05736,1.17482,1.61541,1.5126,2.9518,1.23357l.42589.4846-3.598,3.11332a36.83038,36.83038,0,0,1-5.228-4.99305c-1.54195-1.79163-3.70072-3.56856-7.19587-.52866L569.901,612.472l8.04765,9.31058ZM567.7275,609.96088l6.81408-5.87419c2.14407-1.865,3.9357-4.37629,1.17482-7.57771-2.90774-3.363-5.58046-1.5126-7.049-.26433l-7.328,6.32944,6.38819,7.38679Z" transform="translate(-10.22 -10.24301)"/>
  <path class="cls-6" d="M600.16771,601.35517l-2.73148,2.74617-20.33939-20.26593,2.74618-2.76088Zm3.46579-33.87936c-4.5231-2.46715-7.95954.13216-9.75117,2.23218-3.37764,3.93569-3.20143,9.619,2.5259,14.53861,5.13992,4.40564,10.647,5.9623,15.27288.57275,1.63007-1.90909,3.56856-6.021-.63146-11.35189l2.43779-2.86368c7.18122,8.26793,1.821,15.27288.4259,16.8883-4.25878,4.949-11.63092,7.049-20.01631-.13217-6.69658-5.742-8.077-13.55471-2.62872-19.8988,4.81684-5.60986,10.80849-5.53641,14.81764-2.83429l-2.45249,2.849Z" transform="translate(-10.22 -10.24301)"/>
  <path class="cls-6" d="M620.90359,563.966l5.184,7.19587-2.26157,3.30424-17.53446-25.15623,2.49654-3.62731,29.54717,7.69517-2.39374,3.49515-8.51755-2.39374-6.52036,9.48681Zm2.90774-10.27983-12.82043-3.67137-.02936.07341,7.78328,10.9407Z" transform="translate(-10.22 -10.24301)"/>
  <path class="cls-4" d="M422.356,247.08278c8.64976,8.25323,11.89524,8.48821,3.31893-11.74838Z" transform="translate(-10.22 -10.24301)"/>
  <path class="cls-8" d="M422.36049,247.08755c8.63885,8.24418,11.89853,8.47806,3.31812-11.73772Z" transform="translate(-10.22 -10.24301)"/>
  <path class="cls-15" d="M375.45347,150.07231c-.3508,0,4.26828,1.57867,7.99568-3.06965m-8.33189,2.1049c-4.89682,1.12554,4.01976.73087,4.2975-3.72743" transform="translate(-10.22 -10.24301)"/>
  <path class="cls-8" d="M356.62634,172.29065c4.429,3.21581,10.14443,10.72912,10.75833,13.0679M392.30726,202.797c-.05849-6.08081,2.2803,6.19776,4.63371,7.38176,1.06708.54084,2.14875-1.21324,3.01117-8.03953" transform="translate(-10.22 -10.24301)"/>
  <path class="cls-4" d="M224.92447,280.34538c5.68327,2.07065,11.89524,13.51063,11.89524,18.92957l2.15877,248.537c0,22.131,23.64362,37.28644,43.88021,37.28644h56.78872c18.4009,0,31.42691,1.586,37.3011,23.51146,5.87421-21.9254,18.87082-23.51146,37.27172-23.51146H471.1558c20.23658,0,43.88021-15.15542,43.88021-37.3011L517.19477,299.275c0-5.41895,6.212-16.85892,11.89525-18.92958H224.92447Z" transform="translate(-10.22 -10.24301)"/>
  <path class="cls-16" d="M462.77041,399.29772,377.59465,435.894l14.74423,5.12521,70.43153-41.70674Z" transform="translate(-10.22 -10.24301)"/>
  <path class="cls-2" d="M462.77741,399.29785,377.58759,435.885l14.76352,5.13069Z" transform="translate(-10.22 -10.24301)"/>
  <path class="cls-16" d="M340.58726,350.865,377.59465,435.894l5.06651-14.80294-42.07388-70.22595Z" transform="translate(-10.22 -10.24301)"/>
  <path class="cls-2" d="M340.57651,350.87063,377.58759,435.885l5.07222-14.79274-42.08332-70.22167Z" transform="translate(-10.22 -10.24301)"/>
  <path class="cls-16" d="M414.57267,520.92284l-36.978-85.02889,14.24493,6.35879,22.73313,78.6554Z" transform="translate(-10.22 -10.24301)"/>
  <path class="cls-2" d="M414.58406,520.91408l-36.98184-85.029,14.2519,6.35854Z" transform="translate(-10.22 -10.24301)"/>
  <path class="cls-16" d="M291.83149,471.13909,377.59465,435.894l-6.66719,14.11272Z" transform="translate(-10.22 -10.24301)"/>
  <path class="cls-2" d="M291.82769,471.12744l85.7599-35.22778-6.6655,14.10573-79.07979,21.122Z" transform="translate(-10.22 -10.24301)"/>
  <path class="cls-16" d="M414.41115,350.7916,377.59465,435.894l14.24493-6.40285,22.57157-78.69945Z" transform="translate(-10.22 -10.24301)"/>
  <path class="cls-2" d="M414.40866,350.79754,377.60222,435.885l14.26653-6.38778,22.55454-78.69972Z" transform="translate(-10.22 -10.24301)"/>
  <path class="cls-16" d="M462.85852,472.29925l-85.26387-36.42,14.72953-5.13991Z" transform="translate(-10.22 -10.24301)"/>
  <path class="cls-2" d="M462.86511,472.29682l-85.27752-36.39716,14.73425-5.17454Z" transform="translate(-10.22 -10.24301)"/>
  <path class="cls-16" d="M339.4418,520.39418,377.59465,435.894l4.84619,14.83233-42.99907,69.6679Z" transform="translate(-10.22 -10.24301)"/>
  <path class="cls-2" d="M339.451,520.40247,377.60222,435.885l4.83833,14.8366-43.00419,69.68083Z" transform="translate(-10.22 -10.24301)"/>
  <path class="cls-16" d="M292.31611,399.47394l85.27854,36.42-14.7589,5.15462-70.51966-41.58928Z" transform="translate(-10.22 -10.24301)"/>
  <path class="cls-2" d="M292.32467,399.45864l85.26292,36.4264L362.82407,441.045Z" transform="translate(-10.22 -10.24301)"/>
  <path class="cls-6" d="M291.993,471.53558,377.59465,435.894l-14.71485-5.31614L291.993,471.55028Z" transform="translate(-10.22 -10.24301)"/>
  <path class="cls-2" d="M291.98848,471.53672,377.58759,435.885l-14.705-5.30609Z" transform="translate(-10.22 -10.24301)"/>
  <path class="cls-6" d="M414.558,520.89348,377.59465,435.894l-5.09586,14.74423Z" transform="translate(-10.22 -10.24301)"/>
  <path class="cls-2" d="M414.55484,520.89946,377.60222,435.885l-5.08685,14.76351,42.05406,70.25091Z" transform="translate(-10.22 -10.24301)"/>
  <path class="cls-6" d="M340.58726,350.865,377.59465,435.894l-14.289-6.38819L340.60194,350.865Z" transform="translate(-10.22 -10.24301)"/>
  <path class="cls-2" d="M340.59112,350.87063,377.58759,435.885l-14.28112-6.37315-22.71533-78.64126Z" transform="translate(-10.22 -10.24301)"/>
  <path class="cls-6" d="M462.79981,399.29772,377.59465,435.894,384.0122,421.649l78.78756-22.3513Z" transform="translate(-10.22 -10.24301)"/>
  <path class="cls-2" d="M462.792,399.29785,377.60222,435.885l6.43162-14.23728,78.78742-22.34991Z" transform="translate(-10.22 -10.24301)"/>
  <path class="cls-6" d="M292.30144,399.48864,377.59468,435.894l-6.4763-14.24493Z" transform="translate(-10.22 -10.24301)"/>
  <path class="cls-2" d="M292.29545,399.48788,377.58759,435.885l-6.47547-14.23728Z" transform="translate(-10.22 -10.24301)"/>
  <path class="cls-6" d="M339.83831,520.5704,377.58,435.894l-14.31834,6.24132Z" transform="translate(-10.22 -10.24301)"/>
  <path class="cls-2" d="M339.831,520.57788,377.58759,435.885l-14.325,6.24161L339.831,520.57788Z" transform="translate(-10.22 -10.24301)"/>
  <path class="cls-6" d="M462.85852,472.29925l-85.26387-36.42,6.4616,14.23023,78.80227,22.17508Z" transform="translate(-10.22 -10.24301)"/>
  <path class="cls-2" d="M462.86511,472.29682l-85.27752-36.39716,6.46088,14.20805Z" transform="translate(-10.22 -10.24301)"/>
  <path class="cls-6" d="M414.41115,350.7916,377.59465,435.894l-5.11054-14.78829Z" transform="translate(-10.22 -10.24301)"/>
  <path class="cls-2" d="M414.40866,350.79754,377.60222,435.885l-5.10144-14.76351,41.92251-70.324Z" transform="translate(-10.22 -10.24301)"/>
  <path class="cls-16" d="M452.97522,362.65747,377.59465,435.894l17.68133-.54336,57.69924-72.6931Z" transform="translate(-10.22 -10.24301)"/>
  <path class="cls-2" d="M452.96919,362.65219,377.58759,435.885l17.687-.54084Z" transform="translate(-10.22 -10.24301)"/>
  <path class="cls-16" d="M451.13954,510.90733,377.59465,435.894l17.65193.95454,55.89291,74.05884Z" transform="translate(-10.22 -10.24301)"/>
  <path class="cls-2" d="M451.142,510.91582,377.60222,435.885l17.67235.96474,55.88209,74.066Z" transform="translate(-10.22 -10.24301)"/>
  <path class="cls-16" d="M301.08334,507.91153,377.59465,435.894,376.273,453.53122Z" transform="translate(-10.22 -10.24301)"/>
  <path class="cls-2" d="M301.08046,507.90465,377.58759,435.885,376.272,453.52816Z" transform="translate(-10.22 -10.24301)"/>
  <path class="cls-16" d="M304.02044,360.85116,377.59465,435.894,359.884,434.9247Z" transform="translate(-10.22 -10.24301)"/>
  <path class="cls-2" d="M304.01854,360.85427l73.56905,75.03078-17.687-.96474Z" transform="translate(-10.22 -10.24301)"/>
  <path class="cls-6" d="M303.99106,360.86584,377.59465,435.894l-.64616-17.71068-72.95743-57.31741Z" transform="translate(-10.22 -10.24301)"/>
  <path class="cls-2" d="M303.98932,360.85427l73.59827,75.03078-.62854-17.687-72.96973-57.32919Z" transform="translate(-10.22 -10.24301)"/>
  <path class="cls-6" d="M301.40643,508.264l76.18825-72.37-17.71068.33778L301.40645,508.264Z" transform="translate(-10.22 -10.24301)"/>
  <path class="cls-2" d="M301.41666,508.27008l76.17093-72.385-17.70157.35082-58.46934,72.03422Z" transform="translate(-10.22 -10.24301)"/>
  <path class="cls-6" d="M451.13954,510.90733,377.59465,435.894l.58741,17.68132,72.95743,57.33211Z" transform="translate(-10.22 -10.24301)"/>
  <path class="cls-2" d="M451.142,510.91582,377.60222,435.885l.61395,17.687,72.94049,57.3438Z" transform="translate(-10.22 -10.24301)"/>
  <path class="cls-6" d="M452.97522,362.65747,377.59465,435.894l1.028-17.68133Z" transform="translate(-10.22 -10.24301)"/>
  <path class="cls-2" d="M452.96919,362.65219,377.58759,435.885l1.03782-17.687,74.34374-55.54588Z" transform="translate(-10.22 -10.24301)"/>
  <path class="cls-6" d="M253.943,436.99536,377.59465,435.894,363.45253,421.9721,253.95764,436.99536ZM378.49049,559.48691l-.89581-123.593-14.31834,13.21692Z" transform="translate(-10.22 -10.24301)"/>
  <path class="cls-2" d="M378.47927,559.50384l-.877-123.6188-14.325,13.24331,15.202,110.36088Z" transform="translate(-10.22 -10.24301)"/>
  <path class="cls-6" d="M377.08068,312.25693l.514,123.637-14.14212-14.09807Z" transform="translate(-10.22 -10.24301)"/>
  <path class="cls-2" d="M377.076,312.26624l.51162,123.6188-14.12035-14.0765Z" transform="translate(-10.22 -10.24301)"/>
  <path class="cls-6" d="M501.20232,434.80719,377.59468,435.8939,391.59,421.693l109.61237,13.11412Z" transform="translate(-10.22 -10.24301)"/>
  <path class="cls-2" d="M501.2064,434.818,377.58759,435.885,391.591,421.69161l109.61537,13.11175Z" transform="translate(-10.22 -10.24301)"/>
  <path class="cls-16" d="M377.08068,312.25693l.514,123.637L391.59,421.79588,377.0807,312.25693Z" transform="translate(-10.22 -10.24301)"/>
  <path class="cls-2" d="M377.076,312.26624l.51162,123.6188,14.00339-14.0765Z" transform="translate(-10.22 -10.24301)"/>
  <path class="cls-16" d="M378.50515,559.48691l-.9105-123.593,14.15682,13.90714L378.50519,559.50161Z" transform="translate(-10.22 -10.24301)"/>
  <path class="cls-2" d="M378.50849,559.50384l-.9209-123.6188,14.1642,13.91571-13.2433,109.68848Z" transform="translate(-10.22 -10.24301)"/>
  <path class="cls-16" d="M253.943,436.966l123.65169-1.07206-14.31833,13.21693L253.95764,436.966Z" transform="translate(-10.22 -10.24301)"/>
  <path class="cls-2" d="M253.95417,436.96673,377.58759,435.885l-14.31038,13.24331L253.95415,436.96673Z" transform="translate(-10.22 -10.24301)"/>
  <path class="cls-2" d="M253.95417,437.01058,377.58759,435.885,363.46724,421.984,253.93956,436.996Z" transform="translate(-10.22 -10.24301)"/>
  <path class="cls-16" d="M501.20232,434.77784,377.59468,435.894l13.95122,13.90714Z" transform="translate(-10.22 -10.24301)"/>
  <path class="cls-2" d="M501.2064,434.77413,377.58759,435.885l13.95954,13.91571,109.65922-15.02662Z" transform="translate(-10.22 -10.24301)"/>
  <path class="cls-4" d="M689.45542,419.41684c9.44275-1.04265,11.9099-8.591,12.4239-13.65747.96925-9.54556-5.30143-17.96035-19.19392-19.38485-12.40925-1.23357-22.39535,2.20282-23.717,15.27289-.46994,4.62591.92519,12.86449,12.9526,16.52116l-.70492,6.90219c-19.60512-4.9343-18.85614-21.17648-18.445-25.15623,1.20422-11.96865,10.177-22.9387,30.443-20.89744,16.22743,1.64476,26.53666,12.0421,24.98,27.37374-1.36574,13.59877-10.5295,19.78134-19.44355,19.9282l.70492-6.90219Z" transform="translate(-10.22 -10.24301)"/>
</svg>
